<svg width="369" height="87" viewBox="0 0 369 87" fill="none" xmlns="http://www.w3.org/2000/svg">
<path d="M232.46 53H237.788V41.48H247.868V53H253.16V26.36H247.868V36.872H237.788V26.36H232.46V53ZM267.698 53.504C272.738 53.504 277.346 49.616 277.346 42.956C277.346 36.26 272.738 32.372 267.698 32.372C262.622 32.372 258.014 36.26 258.014 42.956C258.014 49.616 262.622 53.504 267.698 53.504ZM267.698 49.22C264.926 49.22 263.414 46.736 263.414 42.956C263.414 39.14 264.926 36.692 267.698 36.692C270.434 36.692 271.946 39.14 271.946 42.956C271.946 46.736 270.434 49.22 267.698 49.22ZM281.809 53H287.101V41.012C288.217 38.096 290.125 37.016 291.673 37.016C292.537 37.016 293.077 37.16 293.797 37.34L294.697 32.804C294.085 32.516 293.437 32.372 292.357 32.372C290.269 32.372 288.073 33.776 286.633 36.44H286.525L286.093 32.876H281.809V53ZM297.524 53H302.816V32.876H297.524V53ZM300.152 29.6C301.988 29.6 303.248 28.448 303.248 26.684C303.248 24.956 301.988 23.84 300.152 23.84C298.316 23.84 297.092 24.956 297.092 26.684C297.092 28.448 298.316 29.6 300.152 29.6ZM307.053 53H323.001V48.86H313.677L322.713 35.684V32.876H308.061V37.016H316.089L307.053 50.192V53ZM334.67 53.504C339.71 53.504 344.318 49.616 344.318 42.956C344.318 36.26 339.71 32.372 334.67 32.372C329.594 32.372 324.986 36.26 324.986 42.956C324.986 49.616 329.594 53.504 334.67 53.504ZM334.67 49.22C331.898 49.22 330.386 46.736 330.386 42.956C330.386 39.14 331.898 36.692 334.67 36.692C337.406 36.692 338.918 39.14 338.918 42.956C338.918 46.736 337.406 49.22 334.67 49.22ZM348.782 53H354.074V39.14C355.55 37.7 356.594 36.908 358.25 36.908C360.194 36.908 361.094 37.952 361.094 41.12V53H366.386V40.436C366.386 35.396 364.478 32.372 360.158 32.372C357.422 32.372 355.334 33.812 353.606 35.54H353.498L353.066 32.876H348.782V53Z" fill="#333333"/>
<path d="M4.344 68.416V70.464H6.216V68.416H4.344ZM1.784 69.6V71.2H8.76V69.6H1.784ZM1.544 72.848V74.448H9V72.848H1.544ZM2.968 77.232V78.464H7.528V77.232H2.968ZM2.968 79.216V80.432H7.528V79.216H2.968ZM2.648 71.328C2.84 71.888 3.048 72.672 3.112 73.152L4.68 72.752C4.584 72.272 4.376 71.536 4.152 70.976L2.648 71.328ZM6.36 70.944C6.264 71.456 6.04 72.224 5.848 72.736L7.304 73.088C7.512 72.624 7.768 71.984 8.056 71.312L6.36 70.944ZM2.312 75.152V83.408H4.104V76.496H7.592V75.152H2.312ZM6.552 75.152V81.536C6.552 81.712 6.488 81.76 6.296 81.76C6.136 81.776 5.576 81.776 5.064 81.744C5.288 82.192 5.56 82.912 5.656 83.408C6.552 83.408 7.224 83.392 7.768 83.104C8.296 82.832 8.424 82.368 8.424 81.568V75.152H6.552ZM10.36 69.488V71.04H16.248V69.488H10.36ZM10.36 76.288V77.408H15.656V76.288H10.36ZM10.472 78.048V79.168H15.576V78.048H10.472ZM10.264 79.824V80.928H15.736V79.824H10.264ZM9.64 68.416V72.864H11.512V68.416H9.64ZM9.64 71.92V73.344H13.8V74.24H9.64V75.664H15.64V71.92H9.64ZM9.64 74.96V81.12C9.64 82.88 10.184 83.328 11.992 83.328C12.408 83.328 14.056 83.328 14.456 83.328C15.912 83.328 16.408 82.832 16.616 81.2C16.104 81.088 15.384 80.832 14.984 80.56C14.92 81.568 14.808 81.792 14.28 81.792C13.912 81.792 12.568 81.792 12.28 81.792C11.624 81.792 11.512 81.696 11.512 81.088V74.96H9.64ZM21.064 81.2V82.864H28.904V81.2H21.064ZM20.36 76.8V83.44H22.328V78.464H27.624V83.44H29.688V76.8H20.36ZM24.968 73.392C26.344 75.296 28.984 77.504 31.384 78.8C31.72 78.224 32.152 77.584 32.616 77.12C30.104 76.048 27.544 73.968 25.848 71.536H23.912C22.728 73.52 20.2 75.92 17.512 77.264C17.912 77.664 18.44 78.352 18.696 78.8C21.24 77.392 23.672 75.264 24.968 73.392ZM26.104 69.616C27.608 70.768 29.448 72.432 30.264 73.536L31.896 72.384C30.984 71.248 29.08 69.664 27.608 68.592L26.104 69.616ZM21.88 68.672C20.968 70.08 19.4 71.472 17.88 72.32C18.312 72.656 19.08 73.344 19.432 73.712C20.936 72.704 22.68 71.024 23.784 69.344L21.88 68.672ZM33.896 72.72V74.704H48.136V72.72H33.896ZM42.104 73.52L40.168 73.968C41.384 78.368 43.384 81.68 47.048 83.392C47.368 82.832 48.008 82 48.488 81.568C45.096 80.224 43.064 77.184 42.104 73.52ZM39.896 68.416C39.848 72.752 40.136 78.832 33.576 81.76C34.136 82.176 34.728 82.864 35.032 83.392C41.896 80.08 41.928 73.296 42.008 68.416H39.896ZM52.728 73.888V75.536H60.104V73.888H52.728ZM49.864 77.472V79.248H64.184V77.472H49.864ZM56.024 76.448V81.328C56.024 81.552 55.928 81.632 55.608 81.632C55.288 81.632 54.088 81.632 53.064 81.6C53.368 82.096 53.72 82.912 53.848 83.456C55.208 83.456 56.232 83.424 56.984 83.168C57.752 82.88 57.992 82.384 57.992 81.392V76.448H56.024ZM59.48 73.888V74.24C58.888 75.024 57.528 76.16 56.296 76.8C56.584 77.056 57.096 77.584 57.32 77.904C58.888 77.152 60.472 75.904 61.576 74.72L60.36 73.792L59.96 73.888H59.48ZM50.056 70.96V74.88H51.864V72.656H62.104V74.88H64.008V70.96H50.056ZM61.144 68.528C60.76 69.424 60.04 70.624 59.432 71.408L61 71.984C61.656 71.28 62.488 70.192 63.224 69.136L61.144 68.528ZM51.128 69.312C51.672 69.984 52.264 70.896 52.488 71.488L54.232 70.688C53.976 70.064 53.336 69.2 52.76 68.576L51.128 69.312ZM55.16 68.96C55.64 69.696 56.136 70.704 56.296 71.344L58.12 70.64C57.912 70 57.368 69.024 56.856 68.32L55.16 68.96ZM68.728 73.888V75.536H76.104V73.888H68.728ZM65.864 77.472V79.248H80.184V77.472H65.864ZM72.024 76.448V81.328C72.024 81.552 71.928 81.632 71.608 81.632C71.288 81.632 70.088 81.632 69.064 81.6C69.368 82.096 69.72 82.912 69.848 83.456C71.208 83.456 72.232 83.424 72.984 83.168C73.752 82.88 73.992 82.384 73.992 81.392V76.448H72.024ZM75.48 73.888V74.24C74.888 75.024 73.528 76.16 72.296 76.8C72.584 77.056 73.096 77.584 73.32 77.904C74.888 77.152 76.472 75.904 77.576 74.72L76.36 73.792L75.96 73.888H75.48ZM66.056 70.96V74.88H67.864V72.656H78.104V74.88H80.008V70.96H66.056ZM77.144 68.528C76.76 69.424 76.04 70.624 75.432 71.408L77 71.984C77.656 71.28 78.488 70.192 79.224 69.136L77.144 68.528ZM67.128 69.312C67.672 69.984 68.264 70.896 68.488 71.488L70.232 70.688C69.976 70.064 69.336 69.2 68.76 68.576L67.128 69.312ZM71.16 68.96C71.64 69.696 72.136 70.704 72.296 71.344L74.12 70.64C73.912 70 73.368 69.024 72.856 68.32L71.16 68.96ZM86.04 75.136C85.944 77.104 85.736 79.12 85.16 80.4C85.528 80.608 86.168 81.056 86.44 81.296C87.096 79.84 87.416 77.584 87.576 75.36L86.04 75.136ZM85.896 71.824V73.584H91.88V71.824H85.896ZM88.024 68.656V83.184H89.816V68.656H88.024ZM90.104 75.44C90.408 76.96 90.68 78.928 90.744 80.224L92.216 79.936C92.136 78.624 91.848 76.704 91.512 75.168L90.104 75.44ZM92.44 69.28V70.96H96.264V69.28H92.44ZM92.04 73.808V75.52H96.504V73.808H92.04ZM89.928 69.376C90.328 70.08 90.776 71.024 90.952 71.616L92.28 71.024C92.088 70.432 91.608 69.52 91.176 68.848L89.928 69.376ZM93.432 74.288V81.344C93.432 81.536 93.368 81.584 93.16 81.6C92.952 81.6 92.28 81.6 91.64 81.568C91.88 82.112 92.104 82.896 92.152 83.424C93.224 83.424 93.992 83.392 94.552 83.104C95.128 82.8 95.256 82.272 95.256 81.376V74.288H93.432ZM84.056 68.416C83.512 69.44 82.392 70.72 81.352 71.488C81.656 71.84 82.12 72.528 82.344 72.928C83.592 71.968 84.936 70.448 85.784 69.056L84.056 68.416ZM83.192 75.28V83.44H84.952V73.856L84.696 73.776L83.192 75.28ZM84.424 71.792C83.688 73.472 82.44 75.12 81.176 76.192C81.512 76.608 82.024 77.552 82.216 77.952C83.688 76.592 85.208 74.432 86.136 72.384L84.424 71.792ZM108.056 71.984C106.392 77.2 102.952 80.16 97.416 81.616C97.8 82.08 98.408 83.008 98.632 83.488C104.36 81.696 108.088 78.336 110.104 72.576L108.056 71.984ZM101.88 72.112L99.96 72.688C101.96 78.224 105.256 81.888 111.256 83.456C111.56 82.896 112.184 81.984 112.648 81.536C106.952 80.256 103.496 76.848 101.88 72.112ZM97.704 70.944V72.832H112.36V70.944H97.704ZM103.992 68.416V72.096H105.976V68.416H103.992ZM120.632 68.832V80.336C120.632 82.608 121.224 83.248 123.24 83.248C123.672 83.248 125.528 83.248 125.992 83.248C127.88 83.248 128.392 82.224 128.632 79.456C128.088 79.344 127.304 78.992 126.84 78.656C126.728 80.912 126.6 81.472 125.816 81.472C125.432 81.472 123.832 81.472 123.48 81.472C122.696 81.472 122.584 81.312 122.584 80.352V68.832H120.632ZM126.632 71.504C125.208 72.72 123.08 74.16 121.096 75.104C121.368 75.52 121.736 76.192 121.864 76.64C123.944 75.664 126.232 74.464 128.04 73.184L126.632 71.504ZM117.544 68.624C116.552 71.04 114.872 73.408 113.144 74.896C113.496 75.376 114.056 76.432 114.248 76.928C116.264 75.072 118.232 72.112 119.432 69.264L117.544 68.624ZM115.848 73.136V83.408H117.768V71.28L117.736 71.248L115.848 73.136ZM132.376 69.152V70.768H140.744V72.144H132.376V73.76H142.68V69.152H132.376ZM131.24 69.152V73.088C131.24 75.632 131.08 79.312 129.32 81.808C129.736 82.016 130.552 82.672 130.856 83.024C132.808 80.288 133.128 75.904 133.128 73.088V69.152H131.24ZM132.424 74.784V76.464H142.536V74.784H132.424ZM134.84 77.392V78.912H138.376V80.336H134.84V81.856H140.168V77.392H134.84ZM133.832 77.392V82.816H135.592V77.392H133.832ZM141.912 74.784V75.12C141.8 79.472 141.624 81.072 141.32 81.44C141.176 81.632 141.032 81.68 140.776 81.68C140.488 81.68 139.912 81.664 139.256 81.616C139.544 82.096 139.752 82.864 139.784 83.408C140.584 83.44 141.32 83.424 141.784 83.36C142.296 83.28 142.664 83.12 143.016 82.656C143.496 82.048 143.656 80.224 143.832 75.568C143.848 75.328 143.848 74.784 143.848 74.784H141.912ZM146.616 69.712C147.448 70.064 148.536 70.656 149.064 71.088L150.104 69.648C149.544 69.232 148.44 68.704 147.608 68.416L146.616 69.712ZM145.448 72.32C146.28 72.672 147.384 73.248 147.928 73.648L148.936 72.208C148.36 71.824 147.24 71.312 146.424 71.024L145.448 72.32ZM145.864 76.88L147.208 78.32C148.216 77.216 149.224 76.016 150.136 74.896L149.128 73.616C148.024 74.848 146.744 76.128 145.864 76.88ZM151.928 77.888V83.44H153.912V77.888H151.928ZM145.72 78.96V80.672H160.344V78.96H145.72ZM151.976 68.336C151.272 69.904 150.008 71.456 148.68 72.416C149.112 72.736 149.848 73.408 150.168 73.776C151.528 72.608 152.952 70.768 153.832 68.896L151.976 68.336ZM150.824 71.408V76.88H152.696V70.128L150.824 71.408ZM151.784 70.096L150.888 71.584H159.688V70.096H151.784ZM150.824 76.448V77.952H160.072V76.448H150.824ZM151.544 72.32V73.664H159.128V72.32H151.544ZM151.544 74.368V75.712H159.144V74.368H151.544ZM154.568 70.752V77.04H156.392V70.752H154.568ZM155.448 68.432C155.208 69.152 154.76 70.128 154.344 70.8L155.912 71.184C156.376 70.592 156.984 69.696 157.528 68.784L155.448 68.432ZM170.568 69.696C170.328 71.696 169.848 73.904 167.256 75.136C167.64 75.44 168.136 76.064 168.344 76.496C171.288 74.944 171.992 72.304 172.296 69.696H170.568ZM167.8 72.432C169.368 72.928 171.272 73.872 172.312 74.624L173.224 73.152C172.152 72.464 170.28 71.584 168.696 71.104L167.8 72.432ZM174.216 69.04V69.328C174.104 72.688 173.96 73.904 173.704 74.208C173.576 74.368 173.432 74.416 173.224 74.4C172.984 74.4 172.504 74.4 171.96 74.352C172.216 74.816 172.408 75.536 172.424 76.064C173.128 76.08 173.784 76.08 174.168 76.016C174.632 75.952 174.936 75.808 175.24 75.408C175.672 74.896 175.832 73.392 175.992 69.744C176.008 69.52 176.008 69.04 176.008 69.04H174.216ZM169.56 77.664V81.2C169.56 82.8 169.864 83.328 171.352 83.328C171.656 83.328 172.392 83.328 172.68 83.328C173.832 83.328 174.296 82.784 174.472 80.672C173.992 80.544 173.24 80.272 172.904 79.984C172.856 81.472 172.792 81.664 172.488 81.664C172.328 81.664 171.8 81.664 171.656 81.664C171.352 81.664 171.32 81.616 171.32 81.168V77.664H169.56ZM167.928 78.288C167.784 79.6 167.464 80.928 166.808 81.728L168.216 82.592C168.984 81.648 169.288 80.128 169.432 78.688L167.928 78.288ZM169.912 76.56C170.936 77.152 172.152 78.064 172.712 78.72L173.896 77.472C173.304 76.8 172.04 75.968 171.016 75.456L169.912 76.56ZM173.448 78.544C174.232 79.776 174.888 81.472 175.064 82.592L176.744 81.904C176.536 80.768 175.832 79.136 175 77.92L173.448 78.544ZM168.008 69.04V70.64H175.032V69.04H168.008ZM162.2 73.328V74.768H166.888V73.328H162.2ZM162.248 68.912V70.368H166.84V68.912H162.248ZM162.2 75.504V76.96H166.888V75.504H162.2ZM161.464 71.072V72.592H167.32V71.072H161.464ZM163.032 77.728V79.248H165.304V81.072H163.032V82.592H166.904V77.728H163.032ZM162.168 77.728V83.232H163.736V77.728H162.168ZM180.568 73.248V75.072H189.416V73.248H180.568ZM184.984 77.088V78.88H190.392V77.088H184.984ZM183.976 74.304V81.792L185.992 82.032V74.304H183.976ZM180.152 75.968C179.88 78.72 179.08 80.944 177.352 82.224C177.8 82.512 178.616 83.2 178.936 83.536C180.76 81.968 181.752 79.424 182.168 76.176L180.152 75.968ZM181.704 77.968L180.136 78.496C181.512 82.528 184.008 83.28 187.704 83.28H191.736C191.816 82.704 192.136 81.776 192.408 81.328C191.336 81.36 188.664 81.36 187.816 81.36C184.968 81.36 182.728 80.912 181.704 77.968ZM183.944 68.432V71.36H185.992V68.432H183.944ZM178.12 70.048V74.064H180.008V71.872H189.896V74.064H191.88V70.048H178.12ZM196.984 72.128V73.744H204.984V72.128H196.984ZM197.736 74.96V81.408H199.496V74.96H197.736ZM198.696 74.96V76.528H202.504V78.752H198.696V80.352H204.28V74.96H198.696ZM194.2 69.168V83.456H196.056V70.992H207V69.168H194.2ZM205.928 69.168V81.216C205.928 81.488 205.832 81.584 205.56 81.6C205.288 81.6 204.36 81.6 203.512 81.568C203.8 82.048 204.088 82.928 204.152 83.456C205.512 83.456 206.392 83.408 207 83.088C207.624 82.784 207.816 82.24 207.816 81.248V69.168H205.928ZM216.232 69.216V70.992H222.728V69.216H216.232ZM215.688 74.784V76.592H224.52V74.784H215.688ZM219.064 72.912V81.28C219.064 81.504 218.984 81.568 218.728 81.584C218.456 81.6 217.624 81.584 216.808 81.552C217.064 82.064 217.384 82.896 217.48 83.424C218.664 83.44 219.544 83.376 220.184 83.088C220.808 82.784 221 82.272 221 81.312V72.912H219.064ZM222.04 69.216V69.632C221.56 70.592 220.456 72.176 219.512 73.088C219.816 73.344 220.344 73.872 220.6 74.208C221.848 73.152 223.208 71.456 224.152 70.064L222.904 69.12L222.504 69.216H222.04ZM209.592 71.6V73.376H214.76V71.6H209.592ZM211.736 68.416C211.24 71.6 210.376 75.824 209.688 78.352L211.256 79.184C212.008 76.304 212.936 72.016 213.544 68.608L211.736 68.416ZM210.52 78.08C212.2 79.184 214.232 80.864 215.128 82.08L216.28 80.528C215.352 79.328 213.24 77.776 211.576 76.736L210.52 78.08ZM214.104 71.6V71.952C213.784 77.008 212.36 80.544 209.64 81.968C210.024 82.336 210.536 83.024 210.792 83.488C213.96 81.52 215.512 77.984 215.88 71.744L214.744 71.552L214.408 71.6H214.104ZM226.472 81.088L226.728 82.96C229.608 82.848 233.832 82.656 237.752 82.432L237.816 80.672C233.784 80.848 229.336 81.008 226.472 81.088ZM226.392 76.32V78.112H239.704V76.32H226.392ZM229.24 73.248V75.008H236.744V73.248H229.24ZM230.312 77.488C229.912 78.832 229.144 80.608 228.488 81.776L230.168 82.336C230.888 81.264 231.752 79.6 232.504 78.096L230.312 77.488ZM234.28 79.136C235.656 80.416 237.192 82.24 237.864 83.456L239.64 82.384C238.904 81.168 237.416 79.488 235.976 78.256L234.28 79.136ZM232.984 70.288C234.344 72.144 237.048 74.16 239.448 75.28C239.8 74.704 240.232 74.016 240.696 73.536C238.152 72.624 235.608 70.8 233.912 68.448H231.88C230.696 70.336 228.136 72.624 225.4 73.824C225.8 74.24 226.312 74.96 226.536 75.424C229.192 74.16 231.688 72.112 232.984 70.288ZM253.848 70.272C253.848 69.76 254.264 69.344 254.776 69.344C255.288 69.344 255.704 69.76 255.704 70.272C255.704 70.784 255.288 71.2 254.776 71.2C254.264 71.2 253.848 70.784 253.848 70.272ZM252.856 70.272C252.856 71.328 253.72 72.192 254.776 72.192C255.832 72.192 256.696 71.328 256.696 70.272C256.696 69.216 255.832 68.352 254.776 68.352C253.72 68.352 252.856 69.216 252.856 70.272ZM254.808 71.536L253.224 70.528C252.808 70.64 252.296 70.656 251.976 70.656C251.08 70.656 245.768 70.656 244.568 70.656C244.04 70.656 243.144 70.576 242.664 70.512V72.784C243.08 72.752 243.832 72.704 244.568 72.704C245.768 72.704 251.048 72.704 252.024 72.704C251.816 74.08 251.208 75.904 250.136 77.232C248.856 78.848 247.048 80.24 243.864 80.976L245.608 82.896C248.472 81.984 250.6 80.4 252.04 78.48C253.384 76.704 254.088 74.208 254.456 72.64C254.536 72.304 254.648 71.84 254.808 71.536ZM259.016 70.656C259.032 71.12 259.032 71.76 259.032 72.224C259.032 73.152 259.032 79.072 259.032 80.032C259.032 80.8 259 82.208 259 82.288H261.192C261.192 82.208 261.176 80.864 261.176 80.096C261.176 79.152 261.176 72.736 261.176 72.736H268.92C268.92 72.736 268.92 79.168 268.92 80.096C268.92 80.976 268.872 82.224 268.872 82.288H271.096C271.08 82.224 271.064 80.688 271.064 80.064C271.064 79.088 271.064 73.2 271.064 72.224C271.064 71.728 271.064 71.152 271.096 70.672C270.504 70.688 269.912 70.688 269.512 70.688C268.36 70.688 261.864 70.688 260.696 70.688C260.264 70.688 259.656 70.672 259.016 70.656ZM269.704 79.376H260.088V81.408H269.704V79.376ZM285.464 68.896L284.184 69.424C284.616 70.032 285.112 70.992 285.448 71.648L286.728 71.088C286.424 70.496 285.864 69.488 285.464 68.896ZM287.352 68.176L286.088 68.704C286.52 69.296 287.032 70.24 287.368 70.896L288.648 70.352C288.36 69.792 287.768 68.784 287.352 68.176ZM286.888 72.416L285.256 71.408C284.888 71.536 284.36 71.6 283.864 71.6C283.352 71.6 280.008 71.6 279.288 71.6L278.552 73.424H283.944C283.688 74.608 282.76 76.528 281.672 77.776C280.28 79.36 278.504 80.752 275.224 81.744L277.112 83.424C280.12 82.24 282.056 80.768 283.576 78.912C285.016 77.136 285.928 74.992 286.36 73.568C286.488 73.168 286.712 72.736 286.888 72.416ZM281.672 69.888L279.336 69.12C279.192 69.664 278.856 70.416 278.616 70.8C277.816 72.176 276.424 74.24 273.608 75.952L275.416 77.28C277.704 75.712 279.624 73.456 280.696 71.52C280.888 71.184 281.304 70.448 281.672 69.888ZM292.568 69.728V71.808C293.032 71.76 293.704 71.744 294.232 71.744C295.176 71.744 299.464 71.744 300.344 71.744C300.936 71.744 301.688 71.776 302.104 71.808V69.728C301.672 69.792 300.888 69.824 300.376 69.824C299.448 69.824 295.24 69.824 294.232 69.824C293.688 69.824 293 69.792 292.568 69.728ZM303.464 74.384L302.04 73.488C301.816 73.6 301.384 73.664 300.856 73.664C299.768 73.664 294.04 73.664 292.952 73.664C292.44 73.664 291.768 73.616 291.08 73.552V75.632C291.752 75.584 292.552 75.568 292.952 75.568C294.376 75.568 299.864 75.568 300.664 75.568C300.392 76.448 299.88 77.456 299.032 78.32C297.8 79.584 295.896 80.624 293.48 81.136L295.08 82.944C297.128 82.352 299.176 81.28 300.792 79.472C301.976 78.16 302.664 76.592 303.16 75.04C303.208 74.88 303.352 74.592 303.464 74.384ZM309.544 69.472L308.808 71.376C311.064 71.664 315.592 72.672 317.464 73.36L318.28 71.376C316.264 70.672 311.656 69.728 309.544 69.472ZM308.824 73.776L308.072 75.712C310.456 76.096 314.568 77.024 316.392 77.728L317.176 75.728C315.176 75.04 311.112 74.16 308.824 73.776ZM307.992 78.368L307.192 80.368C309.752 80.768 314.824 81.872 316.984 82.752L317.864 80.752C315.656 79.936 310.744 78.784 307.992 78.368ZM324.856 69.84L323.336 71.456C324.504 72.256 326.52 74 327.352 74.896L328.984 73.232C328.04 72.256 325.96 70.592 324.856 69.84ZM322.84 80.496L324.2 82.608C326.44 82.224 328.504 81.344 330.136 80.368C332.712 78.816 334.84 76.608 336.04 74.432L334.808 72.192C333.784 74.352 331.704 76.784 328.968 78.416C327.416 79.328 325.352 80.144 322.84 80.496ZM349.464 68.896L348.184 69.424C348.616 70.032 349.112 70.992 349.448 71.648L350.728 71.088C350.424 70.496 349.864 69.488 349.464 68.896ZM351.352 68.176L350.088 68.704C350.52 69.296 351.032 70.24 351.368 70.896L352.648 70.352C352.36 69.792 351.768 68.784 351.352 68.176ZM350.888 72.416L349.256 71.408C348.888 71.536 348.36 71.6 347.864 71.6C347.352 71.6 344.008 71.6 343.288 71.6L342.552 73.424H347.944C347.688 74.608 346.76 76.528 345.672 77.776C344.28 79.36 342.504 80.752 339.224 81.744L341.112 83.424C344.12 82.24 346.056 80.768 347.576 78.912C349.016 77.136 349.928 74.992 350.36 73.568C350.488 73.168 350.712 72.736 350.888 72.416ZM345.672 69.888L343.336 69.12C343.192 69.664 342.856 70.416 342.616 70.8C341.816 72.176 340.424 74.24 337.608 75.952L339.416 77.28C341.704 75.712 343.624 73.456 344.696 71.52C344.888 71.184 345.304 70.448 345.672 69.888ZM362.312 69.328V83.44H364.184V71.136H366.968V69.328H362.312ZM353.88 69.952V71.616H361.624V69.952H353.88ZM353.544 74.432V76.16H361.816V74.432H353.544ZM356.824 68.528V70.992H358.68V68.528H356.824ZM354.808 72.064C355.08 72.816 355.32 73.808 355.368 74.464L357.048 74.064C356.952 73.424 356.712 72.448 356.392 71.728L354.808 72.064ZM359.096 71.664C358.968 72.4 358.68 73.424 358.424 74.096L359.928 74.464C360.216 73.856 360.536 72.944 360.888 72.048L359.096 71.664ZM355.112 80.992V82.656H360.056V80.992H355.112ZM354.456 77.216V83.456H356.232V78.88H359.24V83.392H361.096V77.216H354.456ZM366.472 69.328V70C366.12 71.12 365.384 73.6 364.744 75.136C366.04 76.384 366.376 77.552 366.392 78.416C366.392 78.976 366.28 79.328 366.008 79.504C365.848 79.6 365.64 79.648 365.416 79.648C365.176 79.664 364.856 79.648 364.504 79.632C364.808 80.16 364.968 80.976 364.984 81.504C365.448 81.52 365.896 81.52 366.264 81.472C366.68 81.408 367.048 81.28 367.368 81.056C367.976 80.64 368.248 79.856 368.248 78.672C368.232 77.6 367.976 76.336 366.648 74.912C367.272 73.536 367.976 71.696 368.552 70.144L367.144 69.264L366.84 69.328H366.472Z" fill="#333333"/>
<path d="M294.12 12.624V14.336H304.28V12.624H294.12ZM299.608 6.496V9.024C299.608 10.512 299.928 10.992 301.432 10.992C301.704 10.992 302.44 10.992 302.744 10.992C303.816 10.992 304.264 10.544 304.44 8.848C303.976 8.736 303.256 8.48 302.92 8.224C302.872 9.296 302.808 9.456 302.536 9.456C302.376 9.456 301.848 9.456 301.72 9.456C301.416 9.456 301.384 9.392 301.384 8.992V6.496H299.608ZM294.152 5.072V8.288H295.816V6.656H302.552V7.856H304.296V5.072H294.152ZM298.152 11.024V19.392H300.04V11.024H298.152ZM296.984 6.496C296.888 8.56 296.552 9.584 293.832 10.144C294.152 10.48 294.6 11.136 294.744 11.568C298.056 10.752 298.616 9.216 298.776 6.496H296.984ZM300.632 13.536L299.24 14.032C300.136 15.952 301.672 17.872 303.272 18.896C303.576 18.4 304.184 17.68 304.632 17.328C303.048 16.544 301.448 15.024 300.632 13.536ZM297.736 13.344C296.856 15.088 295.144 16.704 293.24 17.488C293.624 17.84 294.168 18.512 294.44 18.944C296.472 17.936 298.216 16.016 299.224 13.824L297.736 13.344ZM290.136 5.968C291.128 6.448 292.344 7.216 292.92 7.792L294.088 6.24C293.464 5.68 292.2 4.976 291.24 4.576L290.136 5.968ZM289.464 10.384C290.472 10.768 291.752 11.424 292.344 11.952L293.384 10.288C292.728 9.792 291.432 9.2 290.44 8.88L289.464 10.384ZM289.864 18.176L291.544 19.328C292.392 17.744 293.272 15.888 294.024 14.176L292.536 13.04C291.704 14.912 290.616 16.944 289.864 18.176ZM305.832 15.376V17.088H320.2V15.376H305.832ZM311.96 13.52V19.424H313.896V13.52H311.96ZM309.272 12.016H316.616V12.944H309.272V12.016ZM309.272 9.744H316.616V10.656H309.272V9.744ZM307.432 8.288V14.4H318.552V8.288H307.432ZM309.256 4.416V8.032H311.128V4.416H309.256ZM314.824 4.416V8.032H316.696V4.416H314.824ZM305.896 5.328V7.024H320.136V5.328H305.896ZM329 9.888C327.864 9.888 326.952 10.8 326.952 11.92C326.952 13.056 327.864 13.968 329 13.968C330.12 13.968 331.032 13.056 331.032 11.92C331.032 10.8 330.12 9.888 329 9.888ZM337.896 5.952C338.76 6.384 339.864 7.088 340.36 7.616L341.512 6.08C340.952 5.568 339.848 4.944 338.984 4.56L337.896 5.952ZM337.432 10.224C338.312 10.624 339.4 11.296 339.912 11.792L341.032 10.256C340.488 9.76 339.368 9.168 338.504 8.816L337.432 10.224ZM337.576 18.384L339.352 19.312C339.96 17.744 340.584 15.856 341.096 14.112L339.48 13.152C338.92 15.056 338.152 17.104 337.576 18.384ZM343.192 4.512V9.712H344.92V4.512H343.192ZM341.224 6.16V7.824H346.872V6.16H341.224ZM342.76 10.384H345.416V11.904H342.76V10.384ZM341.464 8.864V13.424H346.792V8.864H341.464ZM343.464 9.872V12.704H343.224V19.44H344.936V12.704H344.696V9.872H343.464ZM343.24 12.544C342.728 13.952 341.64 15.744 340.6 16.688C340.872 17.216 341.272 18.032 341.432 18.592C342.584 17.312 343.672 14.992 344.264 13.072L343.24 12.544ZM344.584 13.792L343.896 14.656C344.44 15.184 345.576 16.448 346.04 17.104L346.92 15.392C346.6 15.12 345.016 14.048 344.584 13.792ZM346.696 4.944V6.592H352.504V4.944H346.696ZM348.728 11.456H350.392V12.352H348.728V11.456ZM348.728 13.728H350.392V14.64H348.728V13.728ZM348.728 9.216H350.392V10.096H348.728V9.216ZM347.176 7.76V16.096H352.008V7.76H347.176ZM349.608 16.736C350.184 17.584 350.856 18.72 351.096 19.44L352.664 18.736C352.36 18 351.688 16.912 351.064 16.112L349.608 16.736ZM348.712 5.648C348.68 6.432 348.52 7.552 348.376 8.336L349.8 8.768C350.072 8.096 350.392 7.056 350.76 6.112L348.712 5.648ZM347.832 16.064C347.384 16.848 346.488 17.92 345.624 18.48C346.072 18.736 346.696 19.2 347.032 19.472C347.816 18.896 348.808 17.776 349.368 16.88L347.832 16.064ZM355.4 16.336V18.288H366.568V16.336H355.4ZM355.4 10.848V12.784H366.648V10.848H355.4ZM354.312 5.472V19.264H356.216V7.328H365.72V19.264H367.72V5.472H354.312ZM359.896 6.352V17.344H361.848V6.352H359.896Z" fill="#6B6B6B"/>
</svg>
