<svg width="150" height="40" viewBox="0 0 150 40" fill="none" xmlns="http://www.w3.org/2000/svg">
<g clip-path="url(#clip0_50_71)">
<path d="M8.3678 36H13.6958V24.48H23.7758V36H29.0678V9.36H23.7758V19.872H13.6958V9.36H8.3678V36ZM43.6059 36.504C48.6459 36.504 53.2539 32.616 53.2539 25.956C53.2539 19.26 48.6459 15.372 43.6059 15.372C38.5299 15.372 33.9219 19.26 33.9219 25.956C33.9219 32.616 38.5299 36.504 43.6059 36.504ZM43.6059 32.22C40.8339 32.22 39.3219 29.736 39.3219 25.956C39.3219 22.14 40.8339 19.692 43.6059 19.692C46.3419 19.692 47.8539 22.14 47.8539 25.956C47.8539 29.736 46.3419 32.22 43.6059 32.22ZM57.717 36H63.009V24.012C64.125 21.096 66.033 20.016 67.581 20.016C68.445 20.016 68.985 20.16 69.705 20.34L70.605 15.804C69.993 15.516 69.345 15.372 68.265 15.372C66.177 15.372 63.981 16.776 62.541 19.44H62.433L62.001 15.876H57.717V36ZM73.4319 36H78.7239V15.876H73.4319V36ZM76.0599 12.6C77.8959 12.6 79.1559 11.448 79.1559 9.684C79.1559 7.956 77.8959 6.84 76.0599 6.84C74.2239 6.84 72.9999 7.956 72.9999 9.684C72.9999 11.448 74.2239 12.6 76.0599 12.6ZM82.9615 36H98.9095V31.86H89.5855L98.6215 18.684V15.876H83.9695V20.016H91.9975L82.9615 33.192V36ZM110.579 36.504C115.619 36.504 120.227 32.616 120.227 25.956C120.227 19.26 115.619 15.372 110.579 15.372C105.503 15.372 100.895 19.26 100.895 25.956C100.895 32.616 105.503 36.504 110.579 36.504ZM110.579 32.22C107.807 32.22 106.295 29.736 106.295 25.956C106.295 22.14 107.807 19.692 110.579 19.692C113.315 19.692 114.827 22.14 114.827 25.956C114.827 29.736 113.315 32.22 110.579 32.22ZM124.69 36H129.982V22.14C131.458 20.7 132.502 19.908 134.158 19.908C136.102 19.908 137.002 20.952 137.002 24.12V36H142.294V23.436C142.294 18.396 140.386 15.372 136.066 15.372C133.33 15.372 131.242 16.812 129.514 18.54H129.406L128.974 15.876H124.69V36Z" fill="#333333"/>
</g>
<defs>
<clipPath id="clip0_50_71">
<rect width="150" height="40" fill="white"/>
</clipPath>
</defs>
</svg>
