<svg width="616" height="301" viewBox="0 0 616 301" fill="none" xmlns="http://www.w3.org/2000/svg">
<path d="M15.926 8.422V73.864H25.13V8.422H15.926ZM2.354 23.476V32.368H36.908V23.476H2.354ZM16.004 27.298C13.04 35.878 6.644 47.578 0.482 53.974C2.042 56.392 4.226 60.37 5.084 63.022C11.714 55.222 18.11 41.104 21.698 30.028L16.004 27.298ZM30.59 1.09C23.648 4.20999 12.182 6.94 1.886 8.578C2.9 10.528 4.148 13.726 4.538 15.754C15.458 14.35 27.938 11.776 37.142 8.11L30.59 1.09ZM24.662 33.928L19.826 38.14C22.946 41.65 29.108 49.294 31.76 53.428L37.298 46.408C35.426 44.38 27.158 35.878 24.662 33.928ZM46.502 2.494C44.63 22.384 39.95 47.656 35.426 63.958L44.474 65.83C49.154 49.762 54.302 25.192 57.188 4.20999L46.502 2.494ZM29.03 61.462L31.214 71.368C41.51 70.042 55.394 68.092 68.498 66.064L68.264 57.484C53.834 59.122 38.546 60.682 29.03 61.462ZM55.706 41.416C60.152 52.024 64.208 65.596 65.222 74.02L75.128 70.978C73.88 62.32 69.356 49.138 64.676 38.842L55.706 41.416ZM113.894 4.756L101.96 3.82C102.194 5.692 102.116 8.88999 101.726 11.776C101.18 16.378 99.386 24.958 97.436 32.29C94.472 43.21 88.544 59.512 83.942 67.39L94.784 71.056C99.074 61.774 104.3 45.862 107.108 34.942C109.214 26.986 111.164 17.47 112.256 12.166C112.646 10.45 113.348 6.94 113.894 4.756ZM94.004 16.456C90.806 16.456 88.232 16.3 84.176 15.832L84.488 25.582C87.218 25.738 90.104 25.894 93.926 25.894C102.74 25.894 114.986 24.568 124.658 22.306V12.556C114.518 14.974 103.52 16.456 94.004 16.456ZM118.496 28.39V37.516C123.41 36.892 128.246 36.658 133.628 36.658C138.308 36.658 143.066 37.204 147.044 37.672L147.2 28.312C142.676 27.844 137.996 27.61 133.55 27.61C128.48 27.61 122.864 27.922 118.496 28.39ZM122.708 47.968L113.426 47.11C112.802 50.152 112.1 53.896 112.1 57.562C112.1 65.44 119.12 69.886 132.302 69.886C138.542 69.886 143.768 69.418 148.136 68.794L148.526 58.888C142.988 59.902 137.606 60.448 132.38 60.448C123.956 60.448 121.694 57.874 121.694 54.442C121.694 52.726 122.162 50.23 122.708 47.968ZM190.256 4.834L179.18 4.366C179.336 6.94 179.258 8.968 178.868 12.244C177.854 20.278 173.486 39.232 167.714 50.62L176.918 53.818C177.62 52.492 178.244 51.556 179.102 50.464C183.704 44.536 191.66 41.26 200.63 41.26C208.274 41.26 212.33 45.238 212.33 49.84C212.33 61.384 195.092 63.412 177.932 60.682L180.662 70.744C205.934 73.474 222.86 67.078 222.86 49.606C222.86 39.544 214.436 32.914 201.878 32.914C194.858 32.914 188.774 34.318 182.456 37.75C184.796 30.496 187.136 19.03 188.384 12.79C189.008 10.294 189.476 7.642 190.256 4.834ZM163.034 13.96L163.112 23.632C167.714 24.1 173.33 24.412 179.258 24.412C190.568 24.412 207.104 22.54 217.01 20.902L216.776 11.542C203.984 14.272 189.164 15.442 179.18 15.442C174.344 15.442 168.104 14.818 163.034 13.96ZM297.974 21.526L292.514 12.556C290.486 14.194 288.302 15.52 285.338 17.236C280.58 19.966 270.752 24.802 263.342 29.716C254.06 35.8 246.806 42.742 246.806 52.648C246.806 66.064 258.584 70.432 274.184 70.432C284.324 70.432 292.514 69.574 299.222 68.482L299.3 57.25C292.358 58.888 281.828 60.136 273.872 60.136C263.03 60.136 257.57 57.094 257.57 51.478C257.57 46.096 261.938 41.572 268.412 37.36C275.588 32.758 285.338 28.156 290.174 25.738C293.06 24.334 295.556 22.93 297.974 21.526ZM258.74 4.834L248.912 8.88999C253.202 18.952 257.882 29.17 262.172 36.268L271.064 31.12C267.398 24.568 262.484 15.208 258.74 4.834ZM313.964 31.51V41.728H386.192V31.51H313.964ZM421.994 8.656V16.456H450.698V8.656H421.994ZM431.822 49.918V57.25H454.91V49.918H431.822ZM431.588 63.1V70.822H455.222V63.1H431.588ZM419.498 23.008V30.964H464.426V23.008H419.498ZM432.758 0.855996V27.844H441.416V0.855996H432.758ZM402.962 0.855996C401.168 6.238 397.814 13.804 395.084 18.484L401.324 21.058C404.288 16.69 407.876 9.748 411.074 3.664L402.962 0.855996ZM411.776 10.06C407.642 18.406 400.544 29.794 394.694 36.814L400.076 39.856C406.082 33.148 413.648 22.306 419.342 13.57L411.776 10.06ZM390.872 19.03C394.772 23.008 399.374 28.546 401.09 32.368L406.16 25.192C404.288 21.526 399.53 16.456 395.474 12.79L390.872 19.03ZM409.124 28.78C411.932 34.162 414.74 41.182 415.52 45.628L422.618 42.43C421.604 37.984 418.64 31.198 415.598 26.05L409.124 28.78ZM390.638 35.02L391.652 43.054C398.906 42.508 408.422 41.806 417.548 41.104L417.47 33.46C407.72 34.084 397.658 34.63 390.638 35.02ZM411.23 48.358C412.946 52.804 414.428 58.576 414.818 62.398L421.76 60.136C421.214 56.392 419.654 50.698 417.782 46.33L411.23 48.358ZM393.992 46.642C393.368 53.194 392.198 60.214 390.014 64.816C391.808 65.596 395.24 67.078 396.8 68.092C399.062 63.1 400.7 55.378 401.48 47.89L393.992 46.642ZM402.572 39.154V74.02H410.606V39.154H402.572ZM455.69 2.338C449.372 20.122 435.956 34.786 416.924 43.6C418.718 45.082 421.37 48.28 422.462 50.152C442.664 40.168 456.236 25.114 463.802 4.912L455.69 2.338ZM435.254 36.658H431.276L426.83 41.338V73.942H435.254V44.302H455.144V36.658H435.254ZM451.166 36.658V74.02H460.214V36.658H451.166ZM501.866 12.478L501.944 22.462C511.694 23.398 525.89 23.398 535.406 22.462V12.4C527.06 13.414 511.46 13.804 501.866 12.478ZM508.106 45.784L499.214 45.004C498.278 48.982 497.81 52.024 497.81 55.144C497.81 63.1 504.284 67.936 517.7 67.936C526.514 67.936 532.832 67.39 537.902 66.376L537.668 55.846C530.882 57.328 525.11 57.952 518.168 57.952C510.212 57.952 507.17 55.846 507.17 52.336C507.17 50.308 507.482 48.436 508.106 45.784ZM489.854 7.252L478.934 6.394C478.856 8.88999 478.466 11.854 478.154 13.96C477.296 20.044 474.956 33.148 474.956 44.926C474.956 55.534 476.438 65.05 477.998 70.354L486.968 69.808C486.89 68.716 486.89 67.39 486.812 66.532C486.812 65.752 487.046 64.036 487.28 62.866C488.06 58.732 490.634 50.308 492.896 43.756L488.06 39.934C486.89 42.586 485.642 45.238 484.472 47.89C484.238 46.33 484.16 44.38 484.16 42.82C484.16 35.02 486.89 19.42 487.982 14.272C488.294 12.868 489.308 8.88999 489.854 7.252ZM61.634 122.826C61.634 120.33 63.662 118.302 66.158 118.302C68.654 118.302 70.682 120.33 70.682 122.826C70.682 125.322 68.654 127.35 66.158 127.35C63.662 127.35 61.634 125.322 61.634 122.826ZM56.798 122.826C56.798 127.974 61.01 132.186 66.158 132.186C71.306 132.186 75.518 127.974 75.518 122.826C75.518 117.678 71.306 113.466 66.158 113.466C61.01 113.466 56.798 117.678 56.798 122.826ZM66.314 128.988L58.592 124.074C56.564 124.62 54.068 124.698 52.508 124.698C48.14 124.698 22.244 124.698 16.394 124.698C13.82 124.698 9.452 124.308 7.112 123.996V135.072C9.14 134.916 12.806 134.682 16.394 134.682C22.244 134.682 47.984 134.682 52.742 134.682C51.728 141.39 48.764 150.282 43.538 156.756C37.298 164.634 28.484 171.42 12.962 175.008L21.464 184.368C35.426 179.922 45.8 172.2 52.82 162.84C59.372 154.182 62.804 142.014 64.598 134.37C64.988 132.732 65.534 130.47 66.314 128.988ZM86.828 124.698C86.906 126.96 86.906 130.08 86.906 132.342C86.906 136.866 86.906 165.726 86.906 170.406C86.906 174.15 86.75 181.014 86.75 181.404H97.436C97.436 181.014 97.358 174.462 97.358 170.718C97.358 166.116 97.358 134.838 97.358 134.838H135.11C135.11 134.838 135.11 166.194 135.11 170.718C135.11 175.008 134.876 181.092 134.876 181.404H145.718C145.64 181.092 145.562 173.604 145.562 170.562C145.562 165.804 145.562 137.1 145.562 132.342C145.562 129.924 145.562 127.116 145.718 124.776C142.832 124.854 139.946 124.854 137.996 124.854C132.38 124.854 100.712 124.854 95.018 124.854C92.912 124.854 89.948 124.776 86.828 124.698ZM138.932 167.208H92.054V177.114H138.932V167.208ZM215.762 116.118L209.522 118.692C211.628 121.656 214.046 126.336 215.684 129.534L221.924 126.804C220.442 123.918 217.712 119.004 215.762 116.118ZM224.966 112.608L218.804 115.182C220.91 118.068 223.406 122.67 225.044 125.868L231.284 123.216C229.88 120.486 226.994 115.572 224.966 112.608ZM222.704 133.278L214.748 128.364C212.954 128.988 210.38 129.3 207.962 129.3C205.466 129.3 189.164 129.3 185.654 129.3L182.066 138.192H208.352C207.104 143.964 202.58 153.324 197.276 159.408C190.49 167.13 181.832 173.916 165.842 178.752L175.046 186.942C189.71 181.17 199.148 173.994 206.558 164.946C213.578 156.288 218.024 145.836 220.13 138.894C220.754 136.944 221.846 134.838 222.704 133.278ZM197.276 120.954L185.888 117.21C185.186 119.862 183.548 123.528 182.378 125.4C178.478 132.108 171.692 142.17 157.964 150.516L166.778 156.99C177.932 149.346 187.292 138.348 192.518 128.91C193.454 127.272 195.482 123.684 197.276 120.954ZM250.394 120.174V130.314C252.656 130.08 255.932 130.002 258.506 130.002C263.108 130.002 284.012 130.002 288.302 130.002C291.188 130.002 294.854 130.158 296.882 130.314V120.174C294.776 120.486 290.954 120.642 288.458 120.642C283.934 120.642 263.42 120.642 258.506 120.642C255.854 120.642 252.5 120.486 250.394 120.174ZM303.512 142.872L296.57 138.504C295.478 139.05 293.372 139.362 290.798 139.362C285.494 139.362 257.57 139.362 252.266 139.362C249.77 139.362 246.494 139.128 243.14 138.816V148.956C246.416 148.722 250.316 148.644 252.266 148.644C259.208 148.644 285.962 148.644 289.862 148.644C288.536 152.934 286.04 157.848 281.906 162.06C275.9 168.222 266.618 173.292 254.84 175.788L262.64 184.602C272.624 181.716 282.608 176.49 290.486 167.676C296.258 161.28 299.612 153.636 302.03 146.07C302.264 145.29 302.966 143.886 303.512 142.872ZM333.152 118.926L329.564 128.208C340.562 129.612 362.636 134.526 371.762 137.88L375.74 128.208C365.912 124.776 343.448 120.174 333.152 118.926ZM329.642 139.908L325.976 149.346C337.598 151.218 357.644 155.742 366.536 159.174L370.358 149.424C360.608 146.07 340.796 141.78 329.642 139.908ZM325.586 162.294L321.686 172.044C334.166 173.994 358.892 179.376 369.422 183.666L373.712 173.916C362.948 169.938 339.002 164.322 325.586 162.294ZM407.798 120.72L400.388 128.598C406.082 132.498 415.91 141 419.966 145.368L427.922 137.256C423.32 132.498 413.18 124.386 407.798 120.72ZM397.97 172.668L404.6 182.964C415.52 181.092 425.582 176.802 433.538 172.044C446.096 164.478 456.47 153.714 462.32 143.106L456.314 132.186C451.322 142.716 441.182 154.572 427.844 162.528C420.278 166.974 410.216 170.952 397.97 172.668ZM527.762 116.118L521.522 118.692C523.628 121.656 526.046 126.336 527.684 129.534L533.924 126.804C532.442 123.918 529.712 119.004 527.762 116.118ZM536.966 112.608L530.804 115.182C532.91 118.068 535.406 122.67 537.044 125.868L543.284 123.216C541.88 120.486 538.994 115.572 536.966 112.608ZM534.704 133.278L526.748 128.364C524.954 128.988 522.38 129.3 519.962 129.3C517.466 129.3 501.164 129.3 497.654 129.3L494.066 138.192H520.352C519.104 143.964 514.58 153.324 509.276 159.408C502.49 167.13 493.832 173.916 477.842 178.752L487.046 186.942C501.71 181.17 511.148 173.994 518.558 164.946C525.578 156.288 530.024 145.836 532.13 138.894C532.754 136.944 533.846 134.838 534.704 133.278ZM509.276 120.954L497.888 117.21C497.186 119.862 495.548 123.528 494.378 125.4C490.478 132.108 483.692 142.17 469.964 150.516L478.778 156.99C489.932 149.346 499.292 138.348 504.518 128.91C505.454 127.272 507.482 123.684 509.276 120.954ZM582.908 117.444L572.612 116.586C572.378 120.564 571.364 125.322 569.804 129.534C566.528 138.114 560.522 146.538 550.538 155.742L558.884 161.982C561.536 158.55 563.72 155.742 566.06 153.402C569.024 150.594 573.938 148.02 578.228 148.02C581.504 148.02 584.624 149.658 584.624 154.65C584.702 158.862 584.546 165.492 584.234 169.158H593.594C593.516 164.244 593.282 155.742 593.282 151.53C593.282 144.276 588.368 140.454 581.894 140.454C579.242 140.454 575.108 141 573.002 141.936C575.186 138.816 577.448 134.37 579.086 130.548C581.27 124.932 582.284 120.33 582.908 117.444ZM553.502 124.698V133.746C557.792 134.136 563.486 134.292 566.684 134.292C576.2 134.292 591.878 133.59 602.876 132.03L602.954 122.982C591.644 125.01 577.526 125.556 567.23 125.556C563.252 125.556 557.48 125.244 553.502 124.698ZM615.278 146.85L611.456 137.724C608.492 139.206 605.762 140.454 602.72 141.78C598.04 143.964 593.126 145.836 585.95 149.58C576.59 154.26 565.436 160.656 565.436 171.498C565.436 181.56 574.562 184.602 586.73 184.602C594.14 184.602 603.656 183.9 608.882 183.198L609.194 173.136C602.33 174.54 593.594 175.398 586.964 175.398C579.398 175.398 575.654 174.228 575.654 169.938C575.654 165.648 579.476 162.294 586.574 158.628C593.906 154.884 600.926 152.076 605.996 150.126C608.648 149.112 612.86 147.552 615.278 146.85ZM17.174 253.454V261.488H53.132V253.454H17.174ZM3.212 270.926V279.584H73.022V270.926H3.212ZM33.242 265.934V289.724C33.242 290.816 32.774 291.206 31.214 291.206C29.654 291.206 23.804 291.206 18.812 291.05C20.294 293.468 22.01 297.446 22.634 300.098C29.264 300.098 34.256 299.942 37.922 298.694C41.666 297.29 42.836 294.872 42.836 290.036V265.934H33.242ZM50.09 253.454V255.17C47.204 258.992 40.574 264.53 34.568 267.65C35.972 268.898 38.468 271.472 39.56 273.032C47.204 269.366 54.926 263.282 60.308 257.51L54.38 252.986L52.43 253.454H50.09ZM4.148 239.18V258.29H12.962V247.448H62.882V258.29H72.164V239.18H4.148ZM58.202 227.324C56.33 231.692 52.82 237.542 49.856 241.364L57.5 244.172C60.698 240.74 64.754 235.436 68.342 230.288L58.202 227.324ZM9.374 231.146C12.026 234.422 14.912 238.868 16.004 241.754L24.506 237.854C23.258 234.812 20.138 230.6 17.33 227.558L9.374 231.146ZM29.03 229.43C31.37 233.018 33.788 237.932 34.568 241.052L43.46 237.62C42.446 234.5 39.794 229.742 37.298 226.31L29.03 229.43ZM133.394 234.656L123.644 237.386C129.026 254.312 135.266 267.338 143.768 276.776L150.086 267.806C138.23 256.808 134.954 244.406 133.394 234.656ZM82.07 238.556L82.772 248.696C84.566 248.306 85.814 248.15 87.452 247.916C89.714 247.682 94.706 247.058 97.67 246.824C90.416 256.106 85.19 265.544 85.19 278.258C85.19 292.376 95.798 299.24 108.356 299.24C134.33 299.24 138.074 275.45 133.706 254.39L124.58 239.492C131.522 269.288 126.296 288.71 108.59 288.71C101.102 288.71 95.174 285.122 95.174 275.996C95.174 261.02 105.704 249.008 111.008 244.952C112.178 244.328 113.816 243.704 114.908 243.314L111.944 234.656C106.874 236.528 93.848 238.166 86.516 238.556C85.034 238.634 83.474 238.634 82.07 238.556ZM140.414 230.288L134.642 232.16C136.358 235.436 137.84 239.804 139.166 243.548L144.938 241.598C143.924 238.4 141.896 233.564 140.414 230.288ZM148.76 227.324L143.144 229.274C144.86 232.55 146.576 236.996 147.746 240.584L153.596 238.634C152.426 235.436 150.476 230.6 148.76 227.324ZM201.566 229.976H190.958C191.27 231.458 191.426 233.876 191.426 235.28C191.426 239.726 191.348 249.632 191.348 257.12C191.348 264.686 192.206 278.648 192.206 283.328C192.206 287.852 189.398 289.022 185.264 289.022C179.882 289.022 177.152 287.228 177.152 284.264C177.152 281.534 180.194 279.428 185.654 279.428C198.992 279.428 210.302 286.994 217.712 294.014L223.328 285.278C216.854 279.818 204.062 271.394 186.902 271.394C174.968 271.394 167.714 276.932 167.714 284.81C167.714 293.078 174.266 297.836 186.746 297.836C196.964 297.836 202.034 292.688 202.034 285.98C202.034 279.818 200.786 265.7 200.786 257.12C200.786 250.568 200.864 239.492 201.02 235.514C201.098 233.486 201.332 231.536 201.566 229.976ZM169.196 237.23L169.352 246.2C174.5 246.824 183.548 247.526 188.54 247.526C200.24 247.526 212.642 246.59 220.598 245.498L220.676 236.606C209.288 238.4 199.07 238.946 188.462 238.946C183.704 238.946 174.734 238.166 169.196 237.23ZM168.728 254.078L168.884 263.282C174.032 263.906 182.846 264.296 187.448 264.296C202.268 264.296 210.77 263.828 221.534 262.58L221.612 253.376C212.018 254.624 201.956 255.56 187.526 255.56C183.392 255.56 173.876 255.014 168.728 254.078ZM290.309 231.848H279.779C280.013 233.33 280.325 236.996 280.325 239.024C280.325 243.626 280.325 248.15 280.325 252.206C280.169 257.588 280.013 263.204 279.623 266.168C279.389 267.728 278.687 267.962 277.205 267.962C275.645 267.962 272.369 267.572 269.951 267.026L269.795 275.606C272.447 276.074 278.765 276.776 281.495 276.776C285.473 276.776 287.501 275.762 288.359 271.628C289.139 267.65 289.373 259.226 289.529 252.284C289.685 248.306 289.685 243.86 289.841 238.556C289.919 236.528 290.075 233.096 290.309 231.848ZM259.577 234.188H248.579C248.969 236.918 249.203 239.57 249.203 242.846C249.203 247.526 249.125 271.238 249.281 277.946C249.593 291.44 252.089 295.73 272.213 295.73C279.701 295.73 289.217 295.028 294.443 294.482L294.833 283.796C289.061 284.888 279.155 285.824 271.511 285.824C259.811 285.824 259.187 284.108 258.953 276.386C258.797 269.99 259.109 249.398 259.109 242.3C259.109 238.946 259.265 236.762 259.577 234.188ZM233.525 251.816L234.539 261.722C236.645 261.41 241.481 260.708 243.899 260.396C252.947 259.382 283.289 256.106 295.457 255.716C297.485 255.716 301.619 255.56 303.023 255.638V246.122C300.683 246.278 297.641 246.512 295.535 246.668C280.481 247.604 251.153 250.49 243.275 251.192C239.297 251.66 235.709 251.816 233.525 251.816ZM353.645 235.124L342.569 230.678C341.165 233.954 339.683 236.528 338.747 238.556C334.535 246.044 318.545 277.868 312.851 293.468L323.849 297.212C325.019 293.078 327.671 284.342 329.777 279.818C332.507 273.5 336.953 268.04 342.257 268.04C345.065 268.04 346.547 269.678 346.781 272.408C347.015 275.606 347.015 281.924 347.249 286.136C347.639 291.752 351.617 296.978 360.275 296.978C372.287 296.978 379.463 288.086 383.597 274.67L375.095 267.806C372.911 277.478 368.699 286.292 361.913 286.292C359.339 286.292 357.233 285.044 356.921 282.002C356.531 278.726 356.687 272.486 356.531 269.054C356.219 262.502 352.709 258.836 346.859 258.836C343.895 258.836 340.853 259.538 337.967 261.254C341.789 254.312 347.249 244.328 351.149 238.79C352.007 237.464 352.787 236.138 353.645 235.124ZM422.597 231.458L411.053 230.21C411.131 236.06 410.273 242.69 408.791 249.71C406.607 259.538 400.757 280.13 391.475 292.61L401.693 296.666C409.805 283.484 416.123 261.254 418.697 250.256C419.477 246.278 420.491 241.442 421.193 237.932C421.661 235.982 422.129 233.486 422.597 231.458ZM449.507 238.712L440.147 242.69C445.763 249.632 451.301 263.672 453.329 272.408L463.235 267.806C460.817 260.318 454.265 245.498 449.507 238.712ZM391.007 247.448L391.943 257.978C394.283 257.588 398.339 257.042 400.601 256.73C404.891 256.184 418.307 254.468 422.987 254.468C427.823 254.468 430.553 255.404 430.553 261.644C430.553 269.288 429.539 278.804 427.355 283.172C426.107 285.746 424.157 286.526 421.505 286.526C419.477 286.526 415.031 285.746 411.989 284.888L413.627 295.184C416.357 295.808 420.023 296.276 423.065 296.276C428.915 296.276 433.205 294.56 435.857 289.1C439.133 282.392 440.225 269.756 440.225 260.552C440.225 249.242 434.375 245.576 426.185 245.576C420.335 245.576 405.593 247.292 399.353 247.448C396.467 247.526 393.815 247.604 391.007 247.448ZM497.633 272.954H507.773C506.525 262.19 523.607 260.786 523.607 249.398C523.607 239.024 515.339 233.72 504.029 233.72C495.683 233.72 488.819 237.542 483.827 243.314L490.223 249.164C494.045 245.186 497.945 243.002 502.703 243.002C508.865 243.002 512.609 245.654 512.609 250.412C512.609 257.978 495.995 260.708 497.633 272.954ZM502.781 293.78C506.681 293.78 509.645 290.894 509.645 286.838C509.645 282.782 506.681 279.974 502.781 279.974C498.803 279.974 495.839 282.782 495.839 286.838C495.839 290.894 498.725 293.78 502.781 293.78Z" fill="#333333"/>
</svg>
